<?xml version="1.0" encoding="UTF-8" standalone="no"?>
<svg
   xmlns:dc="http://purl.org/dc/elements/1.1/"
   xmlns:cc="http://creativecommons.org/ns#"
   xmlns:rdf="http://www.w3.org/1999/02/22-rdf-syntax-ns#"
   xmlns:svg="http://www.w3.org/2000/svg"
   xmlns="http://www.w3.org/2000/svg"
   xmlns:sodipodi="http://sodipodi.sourceforge.net/DTD/sodipodi-0.dtd"
   xmlns:inkscape="http://www.inkscape.org/namespaces/inkscape"
   enable-background="new 0 0 64 64"
   height="64px"
   version="1.1"
   viewBox="0 0 64 64"
   width="64px"
   xml:space="preserve"
   id="svg2"
   inkscape:version="0.91 r13725"
   sodipodi:docname="key.svg"><metadata
     id="metadata26"><rdf:RDF><cc:Work
         rdf:about=""><dc:format>image/svg+xml</dc:format><dc:type
           rdf:resource="http://purl.org/dc/dcmitype/StillImage" /></cc:Work></rdf:RDF></metadata><defs
     id="defs24" /><sodipodi:namedview
     pagecolor="#ffffff"
     bordercolor="#666666"
     borderopacity="1"
     objecttolerance="10"
     gridtolerance="10"
     guidetolerance="10"
     inkscape:pageopacity="0"
     inkscape:pageshadow="2"
     inkscape:window-width="1366"
     inkscape:window-height="715"
     id="namedview22"
     showgrid="false"
     inkscape:zoom="7.2885742"
     inkscape:cx="0.36224905"
     inkscape:cy="32"
     inkscape:window-x="-8"
     inkscape:window-y="-8"
     inkscape:window-maximized="1"
     inkscape:current-layer="svg2" /><g
     id="Layer_1"><g
       opacity="0.2"
       id="g9"><g
         id="g11"><path
           d="M47,18h-4c-0.242,0-0.476,0.088-0.66,0.248L28.536,30.35C27.822,30.2,26.718,30,26,30     c-5.514,0-10,4.486-10,10s4.486,10,10,10s10-4.486,10-10c0-1.638-0.312-2.736-0.666-3.648l3.404-1.156     c0.414-0.14,0.688-0.534,0.678-0.97l-0.084-3.796l3.82-0.266c0.512-0.036,0.914-0.454,0.93-0.966l0.142-4.558l2.992-0.664     C47.674,23.876,48,23.468,48,23v-4C48,18.448,47.552,18,47,18z M23,40c1.2,0,2.236,0.706,2.716,1.724     C25.898,42.112,26,42.544,26,43c0,1.656-1.344,3-3,3s-3-1.344-3-3S21.344,40,23,40z"
           fill="#231F20"
           id="path13" /></g></g><g
       id="g15"
       style="fill:#7092be;fill-opacity:1"><g
         id="g17"
         style="fill:#7092be;fill-opacity:1"><path
           d="M47,16h-4c-0.242,0-0.476,0.088-0.66,0.248L28.536,28.35C27.822,28.2,26.718,28,26,28     c-5.514,0-10,4.486-10,10s4.486,10,10,10s10-4.486,10-10c0-1.638-0.312-2.736-0.666-3.648l3.404-1.156     c0.414-0.14,0.688-0.534,0.678-0.97l-0.084-3.796l3.82-0.266c0.512-0.036,0.914-0.454,0.93-0.966l0.142-4.558l2.992-0.664     C47.674,21.876,48,21.468,48,21v-4C48,16.448,47.552,16,47,16z M23,38c1.2,0,2.236,0.706,2.716,1.724     C25.898,40.112,26,40.544,26,41c0,1.656-1.344,3-3,3s-3-1.344-3-3S21.344,38,23,38z"
           fill="#FFFFFF"
           id="path19"
           style="fill:#7092be;fill-opacity:1" /></g></g></g><g
     id="Layer_2" /></svg>