<?xml version="1.0" encoding="UTF-8" standalone="no"?>
<svg
   xmlns:dc="http://purl.org/dc/elements/1.1/"
   xmlns:cc="http://creativecommons.org/ns#"
   xmlns:rdf="http://www.w3.org/1999/02/22-rdf-syntax-ns#"
   xmlns:svg="http://www.w3.org/2000/svg"
   xmlns="http://www.w3.org/2000/svg"
   xmlns:sodipodi="http://sodipodi.sourceforge.net/DTD/sodipodi-0.dtd"
   xmlns:inkscape="http://www.inkscape.org/namespaces/inkscape"
   height="60"
   id="svg6390"
   version="1.1"
   width="60"
   inkscape:version="0.91 r13725"
   sodipodi:docname="SKUDump1.svg">
  <metadata
     id="metadata8">
    <rdf:RDF>
      <cc:Work
         rdf:about="">
        <dc:format>image/svg+xml</dc:format>
        <dc:type
           rdf:resource="http://purl.org/dc/dcmitype/StillImage" />
        <dc:title></dc:title>
      </cc:Work>
    </rdf:RDF>
  </metadata>
  <sodipodi:namedview
     pagecolor="#ffffff"
     bordercolor="#666666"
     borderopacity="1"
     objecttolerance="10"
     gridtolerance="10"
     guidetolerance="10"
     inkscape:pageopacity="0"
     inkscape:pageshadow="2"
     inkscape:window-width="1366"
     inkscape:window-height="715"
     id="namedview6"
     showgrid="false"
     inkscape:zoom="4.5811558"
     inkscape:cx="18"
     inkscape:cy="26.731421"
     inkscape:window-x="-8"
     inkscape:window-y="-8"
     inkscape:window-maximized="1"
     inkscape:current-layer="layer1" />
  <defs
     id="defs6392" />
  <g
     id="layer1"
     transform="translate(0,-992.3622)">
    <path
       d="m 9.3040537,993.59017 35.4430683,0 7.706517,10.03373 0,9.1437 -1.1986,0 c -0.661868,0 -1.198599,0.5369 -1.198599,1.1987 l 0,7.1917 c 0,0.6618 0.536731,1.1985 1.198599,1.1985 l 1.1986,0 0,28.7663 -4.794401,0 0,-3.5957 c 0,-0.6618 -0.536731,-1.1985 -1.198598,-1.1985 l -31.163588,0 c -0.661867,0 -1.198599,0.5367 -1.198599,1.1985 l 0,3.5957 -4.7943993,0 0,-26.3691 1.1985993,0 c 0.661867,0 1.1986,-0.5369 1.1986,-1.1987 l 0,-19.1774 c 0,-0.662 -0.536733,-1.1987 -1.1986,-1.1987 l -1.1985993,0 z m 5.9929983,4.79428 c -2.4e-4,0 -0.40249,0.073 -0.402729,0.073 0,0 -0.420949,0.25742 -0.421428,0.25742 0,0 -0.285507,0.42133 -0.285507,0.42133 l -0.08869,0.44962 0,43.14508 c 0,1.2007 1.198121,1.1986 1.198121,1.1986 l 31.163589,0 c 0,0 1.198599,0 1.198599,-1.1986 l 0,-43.14508 -0.08871,-0.44962 c 0,0 -0.285504,-0.42133 -0.285504,-0.42133 -2.41e-4,0 -0.421428,-0.25742 -0.421428,-0.25742 l -0.402731,-0.073 z m 1.198599,2.39715 28.766388,0 0,10.7875 -28.766388,0 z m 0,13.1847 28.766388,0 0,27.5678 -28.766388,0 z m 0,34.7593 28.766388,0 0,2.3972 -28.766388,0 z"
       id="path6338"
       style="color:#000000;font-style:normal;font-variant:normal;font-weight:normal;font-stretch:normal;font-size:medium;line-height:normal;font-family:sans-serif;text-indent:0;text-align:start;text-decoration:none;text-decoration-line:none;letter-spacing:normal;word-spacing:normal;text-transform:none;direction:ltr;block-progression:tb;writing-mode:lr-tb;baseline-shift:baseline;text-anchor:start;display:inline;overflow:visible;visibility:visible;fill:#000000;fill-opacity:1;fill-rule:nonzero;stroke:none;enable-background:accumulate"
       inkscape:connector-curvature="0" />
  </g>
</svg>
