<?xml version="1.0" encoding="UTF-8" standalone="no"?>
<svg
   xmlns:dc="http://purl.org/dc/elements/1.1/"
   xmlns:cc="http://creativecommons.org/ns#"
   xmlns:rdf="http://www.w3.org/1999/02/22-rdf-syntax-ns#"
   xmlns:svg="http://www.w3.org/2000/svg"
   xmlns="http://www.w3.org/2000/svg"
   xmlns:sodipodi="http://sodipodi.sourceforge.net/DTD/sodipodi-0.dtd"
   xmlns:inkscape="http://www.inkscape.org/namespaces/inkscape"
   enable-background="new 0 0 50 50"
   height="50px"
   id="Layer_1"
   version="1.1"
   viewBox="0 0 50 50"
   width="50px"
   xml:space="preserve"
   inkscape:version="0.91 r13725"
   sodipodi:docname="user.svg"><metadata
     id="metadata11"><rdf:RDF><cc:Work
         rdf:about=""><dc:format>image/svg+xml</dc:format><dc:type
           rdf:resource="http://purl.org/dc/dcmitype/StillImage" /></cc:Work></rdf:RDF></metadata><defs
     id="defs9" /><sodipodi:namedview
     pagecolor="#ffffff"
     bordercolor="#666666"
     borderopacity="1"
     objecttolerance="10"
     gridtolerance="10"
     guidetolerance="10"
     inkscape:pageopacity="0"
     inkscape:pageshadow="2"
     inkscape:window-width="1366"
     inkscape:window-height="715"
     id="namedview7"
     showgrid="false"
     inkscape:zoom="3.301806"
     inkscape:cx="-12.403772"
     inkscape:cy="25"
     inkscape:window-x="-8"
     inkscape:window-y="-8"
     inkscape:window-maximized="1"
     inkscape:current-layer="g3352" /><rect
     fill="none"
     height="50"
     width="50"
     id="rect3" /><g
     transform="matrix(0.48483168,0,0,0.48483168,-23.484865,2.2427282)"
     style="fill:#000000"
     id="g3352"><path
       inkscape:connector-curvature="0"
       style="fill:#0000ff"
       id="path5-9"
       d="m 135.505,55.02 c -0.268,-1.174 -0.921,-2.286 -1.949,-3.184 -1.027,-0.889 -2.291,-1.43 -3.601,-1.627 L 108.93,46.142 115.012,50.18 105.408,80.284 100,57.919 94.59,80.284 84.992,50.18 l 6.08,-4.038 -21.028,4.067 c -1.306,0.198 -2.568,0.739 -3.603,1.627 -1.029,0.897 -1.677,2.009 -1.945,3.184 l -6.233,27.386 11.76,4.08 c 3.906,4.06 14.831,7.045 27.94,7.327 l 2.037,0 2.039,0 c 13.105,-0.282 24.03,-3.268 27.938,-7.327 l 11.767,-4.08 -6.239,-27.386 z" /><polygon
       style="fill:#000000"
       id="polygon7"
       points="100,57.919 104.851,50.933 100,49.196 95.151,50.933 " /><path
       inkscape:connector-curvature="0"
       style="fill:#000000"
       id="path9"
       d="M 117.995,22.233 C 117.995,9.804 112.881,0.064 99.999,0.064 87.115,0.064 82,9.804 82,22.233 c -1.342,0.701 -2.226,2.352 -0.903,5.887 0.666,1.777 1.843,3.264 2.841,4.041 3.67,9.137 10.89,16.197 16.062,16.197 5.172,0 12.392,-7.06 16.061,-16.198 1.003,-0.776 2.174,-2.263 2.845,-4.041 1.32,-3.534 0.438,-5.185 -0.911,-5.886 z" /></g></svg>